<svg id="Layer_1" xmlns="http://www.w3.org/2000/svg" viewBox="0 0 800 823.4"><style>.st0{fill:#40414b}</style><path class="st0" d="M55.2 169c-.4 0-.8 0-1.2-.1-2.3-.3-4.3-1.5-5.7-3.3l-8.9-11.7c-1.4-1.8-2-4.1-1.7-6.3.3-2.3 1.5-4.3 3.3-5.7l11.7-8.9c1.8-1.4 4.1-2 6.3-1.7 2.3.3 4.3 1.5 5.7 3.3l8.9 11.7c1.4 1.8 2 4.1 1.7 6.3-.3 2.3-1.5 4.3-3.3 5.7l-11.7 8.9c-1.4 1.2-3.2 1.8-5.1 1.8zm2.8-31.8c-.6 0-1.1.2-1.6.5l-11.7 8.9c-.5.4-.9 1-1 1.7-.1.7.1 1.4.5 1.9l8.9 11.7c.4.5 1 .9 1.7 1 .7.1 1.4-.1 1.9-.5l11.7-8.9c.5-.4.9-1 1-1.7s-.1-1.4-.5-1.9L60 138.2c-.4-.5-1-.9-1.7-1H58zM604.7 532.2c-.5 0-1.1-.1-1.6-.2l-14.5-2.8c-4.6-.9-7.7-5.4-6.8-10l2.8-14.5c.9-4.6 5.4-7.7 10-6.8l14.5 2.8c2.2.4 4.2 1.7 5.5 3.6 1.3 1.9 1.8 4.2 1.3 6.4l-2.8 14.5c-.4 2.2-1.7 4.2-3.6 5.5-1.5 1-3.1 1.5-4.8 1.5zm-.5-6.1c.7.1 1.4 0 1.9-.4.6-.4 1-1 1.1-1.6l2.8-14.5c.1-.7 0-1.4-.4-1.9-.4-.6-1-1-1.6-1.1l-14.5-2.8c-1.4-.3-2.7.6-3 2l-2.8 14.5c-.3 1.4.6 2.7 2 3l14.5 2.8zM101.7 601.9c-1.7 0-3.4-.5-4.9-1.6-1.9-1.3-3.1-3.3-3.5-5.5L88 564.7c-.8-4.7 2.3-9.1 7-9.9l7.6-1.3c2.3-.4 4.5.1 6.4 1.4 1.9 1.3 3.1 3.3 3.5 5.5l5.3 30.1c.8 4.7-2.3 9.1-7 9.9l-7.6 1.3c-.5.1-1 .2-1.5.2zm8.6-4.4zm-6.3-38.2h-.5l-7.6 1.3c-1.4.2-2.3 1.6-2.1 3l5.3 30.1c.1.7.5 1.3 1.1 1.7.6.4 1.2.5 1.9.4l7.6-1.3c1.4-.2 2.3-1.6 2.1-3l-5.3-30.1c-.1-.7-.5-1.3-1.1-1.7-.3-.2-.9-.4-1.4-.4zM720 747.5c-7.7 0-13.9-6.3-13.9-13.9s6.3-13.9 13.9-13.9 13.9 6.3 13.9 13.9-6.2 13.9-13.9 13.9zm0-21.9c-4.4 0-7.9 3.6-7.9 7.9s3.6 7.9 7.9 7.9 7.9-3.6 7.9-7.9-3.5-7.9-7.9-7.9zM271.5 82.2c-12.2 0-22-9.9-22-22s9.9-22 22-22 22 9.9 22 22-9.9 22-22 22zm0-38.1c-8.8 0-16 7.2-16 16s7.2 16 16 16 16-7.2 16-16-7.2-16-16-16zM753.2 364.1c-1.3 0-2.4-.8-2.9-2.1-3.7-11.4 2.5-23.8 14-27.5 11.4-3.7 23.8 2.5 27.5 14 .5 1.6-.3 3.3-1.9 3.8-1.6.5-3.3-.3-3.8-1.9-2.7-8.3-11.6-12.8-19.9-10.1-8.3 2.7-12.8 11.6-10.1 19.9.5 1.6-.3 3.3-1.9 3.8-.3 0-.6.1-1 .1zM253.4 715.6c-.6 0-1.3-.2-1.8-.6-1.3-1-1.6-2.9-.6-4.2 2.5-3.4 3.6-7.5 3-11.7-.6-4.2-2.8-7.9-6.2-10.4-3.4-2.5-7.5-3.6-11.7-3-4.2.6-7.9 2.8-10.4 6.2-1 1.3-2.9 1.6-4.2.6-1.3-1-1.6-2.9-.6-4.2 3.5-4.7 8.6-7.7 14.4-8.5 5.8-.8 11.5.7 16.2 4.2 4.7 3.5 7.7 8.6 8.5 14.4.8 5.8-.7 11.5-4.2 16.2-.6.6-1.5 1-2.4 1zM473.4 301.1c-.9 0-1.8-.4-2.3-1.1l-18.9-23.7c-.8-.9-.9-2.3-.3-3.3l14.6-26.5c.5-.9 1.4-1.5 2.4-1.5 1-.1 2 .3 2.6 1.1l18.9 23.7c.8.9.9 2.3.3 3.3l-14.6 26.5c-.5.9-1.4 1.5-2.4 1.5h-.3zm-15.2-27l14.8 18.6 11.5-20.8-14.8-18.6-11.5 20.8zM150.3 358.7c-.5 0-.9-.1-1.4-.3-1.1-.6-1.7-1.7-1.6-3l4-42.7c.1-1 .7-1.9 1.6-2.4.9-.5 1.9-.5 2.8 0l28 14.7c.9.5 1.5 1.3 1.6 2.3.1 1-.3 2-1 2.6l-32 28c-.5.6-1.3.8-2 .8zm6.6-40.9l-2.9 30.7 23-20.2-20.1-10.5zM781.8 549.4h-.3l-31.4-3.2c-1-.1-1.9-.7-2.3-1.6s-.5-1.9 0-2.8l19.3-37.9c.6-1.1 1.7-1.7 3-1.6 1.2.1 2.3 1 2.6 2.1l12.1 41.1c.3 1 .1 2-.6 2.8-.7.7-1.6 1.1-2.4 1.1zm-26.8-8.8l22.6 2.3-8.7-29.6-13.9 27.3zM583.1 375.6l7.2 9.6c1.2 1.6 3.8 1.2 4.4-.7l4-11.7c.6-1.8-1-3.6-2.8-3.3l-11.1 2.1c-1.9.3-2.8 2.5-1.7 4zM477.5 753.4c-.9 0-1.7-.4-2.3-1.1L455 728.1c-.6-.8-.9-1.8-.6-2.7s1-1.7 1.9-2l28-9.5c1-.4 2.2-.1 3 .6.8.7 1.2 1.8.9 2.9l-7.8 33.8c-.3 1.1-1.1 2-2.2 2.2h-.7zm-15.1-25.8l13.6 16.3 5.2-22.6-18.8 6.3zM380.3 546.1H345c-1.7 0-3-1.3-3-3s1.3-3 3-3h32.3v-30.3c0-1.7 1.3-3 3-3s3 1.3 3 3v33.3c0 1.6-1.3 3-3 3zM702.3 100.7H677c-1.1 0-2.1-.6-2.6-1.6s-.5-2.1.1-3.1l25.3-40c.7-1.1 2.1-1.6 3.4-1.3 1.3.4 2.2 1.5 2.2 2.9v40c-.1 1.8-1.4 3.1-3.1 3.1zm-19.8-6h16.9V68.1l-16.9 26.6zM663.7 260.1c-1.4 0-2.7-1-2.9-2.4l-8-41.3c-.3-1.6.7-3.2 2.4-3.5 1.6-.3 3.2.7 3.5 2.4l8 41.3c.3 1.6-.7 3.2-2.4 3.5-.3-.1-.4 0-.6 0zM471.3 123.4c-.6 0-1.1-.2-1.7-.5l-34.3-22.7c-1.4-.9-1.8-2.8-.8-4.2.9-1.4 2.8-1.8 4.2-.8l34.3 22.7c1.4.9 1.8 2.8.8 4.2-.6.8-1.5 1.3-2.5 1.3zM353.2 394.4l-7.5-3.1c-1.6-.7-2.4-2.5-1.7-4.1l3.1-7.5c.7-1.6 2.5-2.4 4.1-1.7l7.5 3.1c1.6.7 2.4 2.5 1.7 4.1l-3.1 7.5c-.7 1.6-2.5 2.3-4.1 1.7zM501 604.2l-6.8 4.4c-1.4.9-3.4.5-4.3-.9l-4.4-6.8c-.9-1.4-.5-3.4.9-4.3l6.8-4.4c1.4-.9 3.4-.5 4.3.9l4.4 6.8c1 1.4.6 3.3-.9 4.3z"/><circle class="st0" cx="298" cy="205.2" r="7.4"/><circle class="st0" cx="40.3" cy="750.4" r="7.4"/><path class="st0" d="M681 678.7c-.8 0-1.6-.3-2.2-.9l-25.3-26.7c-1.1-1.2-1.1-3.1.1-4.2 1.2-1.1 3.1-1.1 4.2.1l25.3 26.7c1.1 1.2 1.1 3.1-.1 4.2-.5.5-1.3.8-2 .8zM16.3 282.7c-1.4 0-2.7-1-3-2.5-.3-1.6.8-3.2 2.5-3.5l24-4c1.6-.3 3.2.8 3.5 2.5.3 1.6-.8 3.2-2.5 3.5l-24 4h-.5zM135.7 44.1c-1.7 0-3-1.3-3-3V17c0-1.7 1.3-3 3-3s3 1.3 3 3v24c0 1.8-1.4 3.1-3 3.1zM193.7 502c-.8 0-1.7-.3-2.2-1-1.1-1.2-1-3.1.3-4.2l29.3-26c1.2-1.1 3.1-1 4.2.3 1.1 1.2 1 3.1-.3 4.2l-29.3 26c-.6.5-1.3.7-2 .7z"/></svg>